<mxfile host="app.diagrams.net" modified="2022-04-03T12:50:03.676Z" agent="5.0 (Windows NT 10.0; Win64; x64) AppleWebKit/537.36 (KHTML, like Gecko) Chrome/99.0.4844.84 Safari/537.36" etag="010NYX35_3PJJ0OhoWim" version="17.4.0" type="github">
  <diagram id="7OPj9lN_IXmlSGJqjeny" name="Page-1">
    <mxGraphModel dx="782" dy="514" grid="1" gridSize="10" guides="1" tooltips="1" connect="1" arrows="1" fold="1" page="1" pageScale="1" pageWidth="827" pageHeight="1169" math="0" shadow="0">
      <root>
        <mxCell id="0" />
        <mxCell id="1" parent="0" />
        <mxCell id="z-IDCbq0CICbhxOPWfZp-55" value="" style="group" parent="1" vertex="1" connectable="0">
          <mxGeometry x="180" y="180" width="130" height="50" as="geometry" />
        </mxCell>
        <mxCell id="z-IDCbq0CICbhxOPWfZp-46" value="" style="strokeWidth=2;dashed=0;align=center;fontSize=8;shape=rect;fillColor=#80FF6C;strokeColor=#000000;fontStyle=1;rounded=0;shadow=0;glass=0;sketch=0;" parent="z-IDCbq0CICbhxOPWfZp-55" vertex="1">
          <mxGeometry y="25" width="22.94117647058824" height="25" as="geometry" />
        </mxCell>
        <mxCell id="z-IDCbq0CICbhxOPWfZp-47" value="" style="strokeWidth=2;dashed=0;align=center;fontSize=8;shape=rect;fillColor=#f5f5f5;strokeColor=#666666;fontStyle=1;rounded=0;shadow=0;glass=0;sketch=0;fontColor=#333333;" parent="z-IDCbq0CICbhxOPWfZp-55" vertex="1">
          <mxGeometry x="45.88235294117648" y="25" width="22.94117647058824" height="25" as="geometry" />
        </mxCell>
        <mxCell id="z-IDCbq0CICbhxOPWfZp-48" value="" style="strokeWidth=2;dashed=0;align=center;fontSize=8;shape=rect;fillColor=#76608a;strokeColor=#432D57;fontStyle=1;rounded=0;shadow=0;glass=0;sketch=0;fontColor=#ffffff;" parent="z-IDCbq0CICbhxOPWfZp-55" vertex="1">
          <mxGeometry x="91.76470588235296" y="25" width="22.94117647058824" height="25" as="geometry" />
        </mxCell>
        <mxCell id="z-IDCbq0CICbhxOPWfZp-177" value="" style="curved=1;endArrow=none;html=1;strokeColor=#1CCF00;strokeWidth=2;endSize=3;rounded=0;fontSize=14;endFill=0;entryX=0;entryY=1;entryDx=0;entryDy=0;" parent="z-IDCbq0CICbhxOPWfZp-55" target="z-IDCbq0CICbhxOPWfZp-174" edge="1">
          <mxGeometry relative="1" as="geometry">
            <Array as="points">
              <mxPoint x="100" y="6" />
            </Array>
            <mxPoint x="100" y="18" as="sourcePoint" />
            <mxPoint x="140" y="-40" as="targetPoint" />
          </mxGeometry>
        </mxCell>
        <mxCell id="z-IDCbq0CICbhxOPWfZp-178" value="" style="curved=1;endArrow=none;html=1;strokeColor=#1CCF00;strokeWidth=2;endSize=3;rounded=0;fontSize=14;endFill=0;entryX=0.5;entryY=1;entryDx=0;entryDy=0;" parent="z-IDCbq0CICbhxOPWfZp-55" target="z-IDCbq0CICbhxOPWfZp-91" edge="1">
          <mxGeometry relative="1" as="geometry">
            <Array as="points">
              <mxPoint x="53.75999999999999" y="13" />
            </Array>
            <mxPoint x="53.75999999999999" y="25" as="sourcePoint" />
            <mxPoint x="91.75999999999999" y="-23" as="targetPoint" />
          </mxGeometry>
        </mxCell>
        <mxCell id="z-IDCbq0CICbhxOPWfZp-58" value="" style="group;rotation=90;" parent="1" vertex="1" connectable="0">
          <mxGeometry x="320" y="180" width="130" height="50" as="geometry" />
        </mxCell>
        <mxCell id="z-IDCbq0CICbhxOPWfZp-59" value="" style="strokeWidth=2;dashed=0;align=center;fontSize=8;shape=rect;fillColor=#6a00ff;strokeColor=#3700CC;fontStyle=1;rounded=0;shadow=0;glass=0;sketch=0;fontColor=#ffffff;" parent="z-IDCbq0CICbhxOPWfZp-58" vertex="1">
          <mxGeometry y="25" width="22.94117647058824" height="25" as="geometry" />
        </mxCell>
        <mxCell id="z-IDCbq0CICbhxOPWfZp-60" value="" style="strokeWidth=2;dashed=0;align=center;fontSize=8;shape=rect;fillColor=#fa6800;strokeColor=#C73500;fontStyle=1;rounded=0;shadow=0;glass=0;sketch=0;fontColor=#000000;" parent="z-IDCbq0CICbhxOPWfZp-58" vertex="1">
          <mxGeometry x="45.88235294117648" y="25" width="22.94117647058824" height="25" as="geometry" />
        </mxCell>
        <mxCell id="z-IDCbq0CICbhxOPWfZp-62" value="" style="strokeWidth=2;dashed=0;align=center;fontSize=8;shape=rect;fillColor=#fad9d5;strokeColor=#ae4132;fontStyle=1;rounded=0;shadow=0;glass=0;sketch=0;" parent="z-IDCbq0CICbhxOPWfZp-58" vertex="1">
          <mxGeometry x="91.76470588235296" y="25" width="22.94117647058824" height="25" as="geometry" />
        </mxCell>
        <mxCell id="z-IDCbq0CICbhxOPWfZp-168" value="" style="curved=1;endArrow=none;html=1;strokeColor=#1CCF00;strokeWidth=2;endSize=3;rounded=0;fontSize=14;endFill=0;" parent="z-IDCbq0CICbhxOPWfZp-58" edge="1">
          <mxGeometry relative="1" as="geometry">
            <Array as="points">
              <mxPoint x="60" y="13" />
            </Array>
            <mxPoint x="60" y="25" as="sourcePoint" />
            <mxPoint x="98" y="-23" as="targetPoint" />
          </mxGeometry>
        </mxCell>
        <mxCell id="z-IDCbq0CICbhxOPWfZp-65" value="" style="endArrow=classic;html=1;rounded=0;strokeWidth=2;" parent="1" edge="1">
          <mxGeometry width="50" height="50" relative="1" as="geometry">
            <mxPoint x="490" y="240" as="sourcePoint" />
            <mxPoint x="160" y="240" as="targetPoint" />
          </mxGeometry>
        </mxCell>
        <mxCell id="z-IDCbq0CICbhxOPWfZp-67" value="&lt;b&gt;&lt;font style=&quot;font-size: 14px&quot;&gt;list&lt;/font&gt;&lt;/b&gt;" style="text;html=1;strokeColor=none;fillColor=none;align=center;verticalAlign=middle;whiteSpace=wrap;rounded=0;shadow=0;glass=0;sketch=0;" parent="1" vertex="1">
          <mxGeometry x="120" y="200" width="60" height="30" as="geometry" />
        </mxCell>
        <mxCell id="z-IDCbq0CICbhxOPWfZp-68" value="&lt;b&gt;&lt;font style=&quot;font-size: 14px&quot;&gt;initial&lt;/font&gt;&lt;/b&gt;" style="text;html=1;strokeColor=none;fillColor=none;align=center;verticalAlign=middle;whiteSpace=wrap;rounded=0;shadow=0;glass=0;sketch=0;" parent="1" vertex="1">
          <mxGeometry x="440" y="200" width="60" height="30" as="geometry" />
        </mxCell>
        <mxCell id="z-IDCbq0CICbhxOPWfZp-90" value="&lt;b&gt;&lt;font style=&quot;font-size: 14px&quot;&gt;&amp;nbsp; &amp;nbsp; &amp;nbsp;op(init&amp;nbsp; &amp;nbsp; &amp;nbsp; &amp;nbsp; &amp;nbsp;)&lt;/font&gt;&lt;/b&gt;" style="text;html=1;strokeColor=none;fillColor=none;align=center;verticalAlign=middle;whiteSpace=wrap;rounded=0;shadow=0;glass=0;sketch=0;" parent="1" vertex="1">
          <mxGeometry x="426.76" y="150" width="160" height="30" as="geometry" />
        </mxCell>
        <mxCell id="z-IDCbq0CICbhxOPWfZp-144" value="" style="curved=1;endArrow=block;html=1;strokeColor=#1CCF00;strokeWidth=2;endSize=3;rounded=0;fontSize=14;" parent="1" edge="1">
          <mxGeometry relative="1" as="geometry">
            <Array as="points">
              <mxPoint x="388" y="250" />
            </Array>
            <mxPoint x="380" y="262" as="targetPoint" />
          </mxGeometry>
        </mxCell>
        <mxCell id="z-IDCbq0CICbhxOPWfZp-145" value="" style="curved=1;endArrow=block;html=1;strokeColor=#1CCF00;strokeWidth=2;endSize=3;rounded=0;fontSize=14;" parent="1" edge="1">
          <mxGeometry relative="1" as="geometry">
            <Array as="points">
              <mxPoint x="412" y="250" />
            </Array>
            <mxPoint x="404" y="262" as="targetPoint" />
          </mxGeometry>
        </mxCell>
        <mxCell id="z-IDCbq0CICbhxOPWfZp-150" value="" style="curved=1;endArrow=none;html=1;strokeColor=#1CCF00;strokeWidth=2;endSize=3;rounded=0;fontSize=14;startArrow=none;endFill=0;" parent="1" source="z-IDCbq0CICbhxOPWfZp-91" edge="1">
          <mxGeometry relative="1" as="geometry">
            <Array as="points" />
            <mxPoint x="478" y="200" as="sourcePoint" />
            <mxPoint x="220" y="90" as="targetPoint" />
          </mxGeometry>
        </mxCell>
        <mxCell id="z-IDCbq0CICbhxOPWfZp-158" value="" style="curved=1;endArrow=none;html=1;strokeColor=#1CCF00;strokeWidth=2;endSize=3;rounded=0;fontSize=14;endFill=0;exitX=0;exitY=1;exitDx=0;exitDy=0;" parent="1" source="z-IDCbq0CICbhxOPWfZp-131" edge="1">
          <mxGeometry relative="1" as="geometry">
            <Array as="points">
              <mxPoint x="432" y="190" />
            </Array>
            <mxPoint x="464" y="170" as="sourcePoint" />
            <mxPoint x="430" y="200" as="targetPoint" />
          </mxGeometry>
        </mxCell>
        <mxCell id="z-IDCbq0CICbhxOPWfZp-131" value="" style="ellipse;whiteSpace=wrap;html=1;aspect=fixed;rounded=0;shadow=0;glass=0;sketch=0;fontSize=14;fillColor=#6d8764;fontColor=#ffffff;strokeColor=#3A5431;" parent="1" vertex="1">
          <mxGeometry x="450" y="160" width="15" height="15" as="geometry" />
        </mxCell>
        <mxCell id="z-IDCbq0CICbhxOPWfZp-160" value="" style="curved=1;endArrow=none;html=1;strokeColor=#1CCF00;strokeWidth=2;endSize=3;rounded=0;fontSize=14;" parent="1" target="z-IDCbq0CICbhxOPWfZp-131" edge="1">
          <mxGeometry relative="1" as="geometry">
            <Array as="points">
              <mxPoint x="480" y="176" />
            </Array>
            <mxPoint x="478" y="200" as="sourcePoint" />
            <mxPoint x="288" y="90" as="targetPoint" />
          </mxGeometry>
        </mxCell>
        <mxCell id="z-IDCbq0CICbhxOPWfZp-161" style="edgeStyle=none;rounded=0;orthogonalLoop=1;jettySize=auto;html=1;exitX=0;exitY=0;exitDx=0;exitDy=0;entryX=1;entryY=0;entryDx=0;entryDy=0;fontSize=14;endArrow=none;endFill=0;strokeWidth=2;" parent="1" source="z-IDCbq0CICbhxOPWfZp-131" target="z-IDCbq0CICbhxOPWfZp-131" edge="1">
          <mxGeometry relative="1" as="geometry" />
        </mxCell>
        <mxCell id="z-IDCbq0CICbhxOPWfZp-130" value="" style="ellipse;whiteSpace=wrap;html=1;aspect=fixed;rounded=0;shadow=0;glass=0;sketch=0;fontSize=14;fillColor=#6d8764;fontColor=#ffffff;strokeColor=#3A5431;" parent="1" vertex="1">
          <mxGeometry x="411.76" y="145" width="15" height="15" as="geometry" />
        </mxCell>
        <mxCell id="z-IDCbq0CICbhxOPWfZp-162" value="" style="curved=1;endArrow=none;html=1;strokeColor=#1CCF00;strokeWidth=2;endSize=3;rounded=0;fontSize=14;startArrow=none;" parent="1" source="z-IDCbq0CICbhxOPWfZp-131" target="z-IDCbq0CICbhxOPWfZp-130" edge="1">
          <mxGeometry relative="1" as="geometry">
            <Array as="points" />
            <mxPoint x="450.6750201922225" y="164.39039381539135" as="sourcePoint" />
            <mxPoint x="288" y="90" as="targetPoint" />
          </mxGeometry>
        </mxCell>
        <mxCell id="z-IDCbq0CICbhxOPWfZp-169" value="" style="ellipse;whiteSpace=wrap;html=1;aspect=fixed;rounded=0;shadow=0;glass=0;sketch=0;fontSize=14;fillColor=#6d8764;fontColor=#ffffff;strokeColor=#3A5431;" parent="1" vertex="1">
          <mxGeometry x="210" y="85" width="15" height="15" as="geometry" />
        </mxCell>
        <mxCell id="z-IDCbq0CICbhxOPWfZp-170" value="" style="ellipse;whiteSpace=wrap;html=1;aspect=fixed;rounded=0;shadow=0;glass=0;sketch=0;fontSize=14;fillColor=#6d8764;fontColor=#ffffff;strokeColor=#3A5431;" parent="1" vertex="1">
          <mxGeometry x="373.82" y="130" width="15" height="15" as="geometry" />
        </mxCell>
        <mxCell id="z-IDCbq0CICbhxOPWfZp-171" value="" style="curved=1;endArrow=none;html=1;strokeColor=#1CCF00;strokeWidth=2;endSize=3;rounded=0;fontSize=14;startArrow=none;" parent="1" source="z-IDCbq0CICbhxOPWfZp-130" target="z-IDCbq0CICbhxOPWfZp-170" edge="1">
          <mxGeometry relative="1" as="geometry">
            <Array as="points" />
            <mxPoint x="412.4809128656266" y="149.2915770814417" as="sourcePoint" />
            <mxPoint x="288" y="90" as="targetPoint" />
          </mxGeometry>
        </mxCell>
        <mxCell id="z-IDCbq0CICbhxOPWfZp-173" value="" style="curved=1;endArrow=none;html=1;strokeColor=#1CCF00;strokeWidth=2;endSize=3;rounded=0;fontSize=14;endFill=0;" parent="1" edge="1">
          <mxGeometry relative="1" as="geometry">
            <Array as="points">
              <mxPoint x="340" y="179.5" />
            </Array>
            <mxPoint x="340" y="200" as="sourcePoint" />
            <mxPoint x="378" y="143.5" as="targetPoint" />
          </mxGeometry>
        </mxCell>
        <mxCell id="z-IDCbq0CICbhxOPWfZp-174" value="" style="ellipse;whiteSpace=wrap;html=1;aspect=fixed;rounded=0;shadow=0;glass=0;sketch=0;fontSize=14;fillColor=#6d8764;fontColor=#ffffff;strokeColor=#3A5431;" parent="1" vertex="1">
          <mxGeometry x="327.94" y="115" width="15" height="15" as="geometry" />
        </mxCell>
        <mxCell id="z-IDCbq0CICbhxOPWfZp-176" value="" style="curved=1;endArrow=none;html=1;strokeColor=#1CCF00;strokeWidth=2;endSize=3;rounded=0;fontSize=14;startArrow=none;endFill=0;" parent="1" source="z-IDCbq0CICbhxOPWfZp-170" target="z-IDCbq0CICbhxOPWfZp-174" edge="1">
          <mxGeometry relative="1" as="geometry">
            <Array as="points" />
            <mxPoint x="374.20487526460397" y="135.12829175486797" as="sourcePoint" />
            <mxPoint x="240" y="90" as="targetPoint" />
          </mxGeometry>
        </mxCell>
        <mxCell id="z-IDCbq0CICbhxOPWfZp-91" value="" style="ellipse;whiteSpace=wrap;html=1;aspect=fixed;rounded=0;shadow=0;glass=0;sketch=0;fontSize=14;fillColor=#6d8764;fontColor=#ffffff;strokeColor=#3A5431;" parent="1" vertex="1">
          <mxGeometry x="275.74" y="100" width="15" height="15" as="geometry" />
        </mxCell>
        <mxCell id="z-IDCbq0CICbhxOPWfZp-179" value="" style="curved=1;endArrow=none;html=1;strokeColor=#1CCF00;strokeWidth=2;endSize=3;rounded=0;fontSize=14;startArrow=none;endFill=0;" parent="1" source="z-IDCbq0CICbhxOPWfZp-174" target="z-IDCbq0CICbhxOPWfZp-91" edge="1">
          <mxGeometry relative="1" as="geometry">
            <Array as="points" />
            <mxPoint x="328.0735844304927" y="121.09077267365944" as="sourcePoint" />
            <mxPoint x="220" y="100" as="targetPoint" />
          </mxGeometry>
        </mxCell>
        <mxCell id="z-IDCbq0CICbhxOPWfZp-181" value="" style="curved=1;endArrow=none;html=1;strokeColor=#1CCF00;strokeWidth=2;endSize=3;rounded=0;fontSize=14;endFill=0;entryX=0.5;entryY=1;entryDx=0;entryDy=0;" parent="1" edge="1">
          <mxGeometry relative="1" as="geometry">
            <Array as="points">
              <mxPoint x="170" y="178" />
            </Array>
            <mxPoint x="190" y="200" as="sourcePoint" />
            <mxPoint x="219.48000000000002" y="100" as="targetPoint" />
          </mxGeometry>
        </mxCell>
        <mxCell id="z-IDCbq0CICbhxOPWfZp-185" value="" style="strokeWidth=2;dashed=0;align=center;fontSize=8;shape=rect;fillColor=#fad9d5;strokeColor=#ae4132;fontStyle=1;rounded=0;shadow=0;glass=0;sketch=0;" parent="1" vertex="1">
          <mxGeometry x="530" y="157.5" width="18.24" height="15" as="geometry" />
        </mxCell>
        <mxCell id="LsUzd3-A_yadWbhYRv4Q-1" value="&lt;b&gt;&lt;font style=&quot;font-size: 14px&quot;&gt;accumulate&lt;/font&gt;&lt;/b&gt;" style="text;html=1;strokeColor=none;fillColor=none;align=center;verticalAlign=middle;whiteSpace=wrap;rounded=0;" vertex="1" parent="1">
          <mxGeometry x="305.44" y="250" width="60" height="30" as="geometry" />
        </mxCell>
      </root>
    </mxGraphModel>
  </diagram>
</mxfile>
